<svg width="1552" height="544" viewBox="0 0 1552 544" fill="none" xmlns="http://www.w3.org/2000/svg">
<rect width="1552" height="544" fill="url(#paint0_radial_42_1415)"/>
<g filter="url(#filter0_d_42_1415)">
<path d="M1363.43 335.24C1365.57 339.72 1367.81 344.84 1370.16 350.6C1370.46 351.326 1370.77 352.062 1371.08 352.804C1373.16 347.931 1375.09 343.357 1376.88 339.08L1413.04 257.8H1486.96L1396.08 429.96L1359.59 502.6H1294.63L1337.94 418.409L1251.43 257.8H1326.32L1363.43 335.24ZM475.92 254.28C497.893 254.28 517.093 258.12 533.52 265.8C549.946 273.266 562.854 283.72 572.24 297.16C581.627 310.387 586.32 325.747 586.32 343.24C586.32 360.52 581.627 375.88 572.24 389.32C562.854 402.76 549.946 413.32 533.52 421C517.093 428.467 497.893 432.2 475.92 432.2C454.587 432.2 435.493 428.467 418.64 421C402 413.32 388.986 402.76 379.6 389.32C370.213 375.88 365.52 360.52 365.52 343.24C365.52 325.747 370.213 310.387 379.6 297.16C388.986 283.72 402 273.266 418.64 265.8C435.493 258.12 454.587 254.28 475.92 254.28ZM1050.87 254.28C1065.16 254.28 1078.28 256.52 1090.23 261C1102.39 265.267 1112.84 271.347 1121.59 279.24C1130.55 287.134 1137.38 296.52 1142.07 307.4C1146.76 318.28 1148.9 330.227 1148.47 343.24L1148.15 357.32H1014.57C1014.92 357.859 1015.29 358.392 1015.67 358.92C1020.36 364.893 1027.19 369.694 1036.15 373.32C1045.32 376.947 1056.2 378.76 1068.79 378.76C1080.31 378.76 1089.59 377.693 1096.63 375.56C1103.67 373.213 1109.22 370.76 1113.27 368.2L1141.75 408.52C1133.22 414.28 1124.47 418.867 1115.51 422.28C1106.76 425.694 1097.7 428.146 1088.31 429.64C1079.14 431.346 1069.64 432.2 1059.83 432.2C1037.22 432.2 1017.59 428.36 1000.95 420.68C984.524 413 971.83 402.44 962.87 389C954.123 375.56 949.75 360.307 949.75 343.24C949.75 330.014 952.31 317.96 957.43 307.08C962.763 295.987 970.017 286.6 979.19 278.92C988.577 271.027 999.35 264.946 1011.51 260.68C1023.88 256.413 1037 254.28 1050.87 254.28ZM127 429H84V353H127V429ZM248 429H232V380H191V429H175V364H248V429ZM338 429H295V353H338V429ZM858.105 254.28C874.958 254.28 888.718 257.373 899.385 263.56C910.265 269.746 918.159 278.173 923.065 288.84C927.972 299.507 930.425 311.667 930.425 325.32V429H865.465V332.36C865.465 327.667 864.505 323.507 862.585 319.88C860.665 316.04 857.785 312.946 853.945 310.6C850.319 308.253 845.731 307.08 840.185 307.08C834.851 307.08 829.945 307.933 825.465 309.64C820.985 311.133 817.038 313.267 813.625 316.04C810.425 318.813 807.865 322.12 805.945 325.96C804.239 329.587 803.385 333.64 803.385 338.12V429H738.425V332.36C738.425 327.667 737.358 323.4 735.225 319.56C733.091 315.506 729.785 312.414 725.305 310.28C721.038 308.147 715.385 307.08 708.345 307.08C703.652 307.08 699.278 308.04 695.225 309.96C691.172 311.667 687.759 313.907 684.985 316.68C682.212 319.453 680.078 322.44 678.585 325.64C677.092 328.84 676.345 331.72 676.345 334.28V429H611.385V257.8H671.545L672.893 275.652C674.121 274.572 675.378 273.527 676.665 272.52C681.785 268.68 687.225 265.373 692.985 262.6C698.745 259.826 704.932 257.799 711.545 256.52C718.371 255.026 725.625 254.28 733.305 254.28C742.051 254.28 750.265 255.453 757.945 257.8C765.839 259.933 772.772 264.094 778.745 270.28C782.3 273.836 785.478 278.26 788.277 283.554C790.961 280.617 793.863 277.898 796.985 275.4C802.319 271.134 808.078 267.4 814.265 264.2C820.665 261 827.492 258.547 834.745 256.84C842.212 255.133 849.999 254.28 858.105 254.28ZM1238.8 429H1173.84V192.2H1238.8V429ZM476.24 308.36C467.92 308.36 460.24 309.853 453.2 312.84C446.374 315.613 440.933 319.667 436.88 325C433.04 330.12 431.12 336.2 431.12 343.24C431.12 350.067 433.04 356.147 436.88 361.48C440.933 366.6 446.374 370.653 453.2 373.64C460.24 376.413 467.92 377.8 476.24 377.8C484.56 377.8 492.026 376.413 498.64 373.64C505.466 370.653 510.907 366.6 514.96 361.48C519.013 356.147 520.933 350.067 520.72 343.24C520.933 336.2 519.013 330.12 514.96 325C510.907 319.667 505.466 315.613 498.64 312.84C492.026 309.853 484.56 308.36 476.24 308.36ZM160 211.868L211 157L356 313L338 339H295L211 249L127 339H84L66 313L90 287.179V87H160V211.868ZM1052.15 304.52C1044.04 304.52 1036.68 305.8 1030.07 308.36C1023.46 310.92 1018.23 314.76 1014.39 319.88C1013.5 321.088 1012.71 322.369 1012.04 323.72H1090.1C1089.34 320.584 1087.68 317.81 1085.11 315.4C1081.7 311.987 1077.11 309.32 1071.35 307.4C1065.8 305.48 1059.4 304.52 1052.15 304.52Z" fill="white"/>
</g>
<defs>
<filter id="filter0_d_42_1415" x="65" y="86" width="1428.95" height="423.6" filterUnits="userSpaceOnUse" color-interpolation-filters="sRGB">
<feFlood flood-opacity="0" result="BackgroundImageFix"/>
<feColorMatrix in="SourceAlpha" type="matrix" values="0 0 0 0 0 0 0 0 0 0 0 0 0 0 0 0 0 0 127 0" result="hardAlpha"/>
<feOffset dx="3" dy="3"/>
<feGaussianBlur stdDeviation="2"/>
<feComposite in2="hardAlpha" operator="out"/>
<feColorMatrix type="matrix" values="0 0 0 0 0 0 0 0 0 0 0 0 0 0 0 0 0 0 0.25 0"/>
<feBlend mode="normal" in2="BackgroundImageFix" result="effect1_dropShadow_42_1415"/>
<feBlend mode="normal" in="SourceGraphic" in2="effect1_dropShadow_42_1415" result="shape"/>
</filter>
<radialGradient id="paint0_radial_42_1415" cx="0" cy="0" r="1" gradientTransform="matrix(1348 542.5 -2360.05 1185.34 161.5 63.0001)" gradientUnits="userSpaceOnUse">
<stop stop-color="#ECBD04"/>
<stop offset="0.482965" stop-color="#FC762F"/>
<stop offset="1" stop-color="#FC7A33"/>
</radialGradient>
</defs>
</svg>
